<?xml version="1.0" encoding="UTF-8" standalone="no"?>
<!-- Created with Inkscape (http://www.inkscape.org/) -->

<svg
   xmlns:dc="http://purl.org/dc/elements/1.1/"
   xmlns:cc="http://creativecommons.org/ns#"
   xmlns:rdf="http://www.w3.org/1999/02/22-rdf-syntax-ns#"
   xmlns:svg="http://www.w3.org/2000/svg"
   xmlns="http://www.w3.org/2000/svg"
   xmlns:sodipodi="http://sodipodi.sourceforge.net/DTD/sodipodi-0.dtd"
   xmlns:inkscape="http://www.inkscape.org/namespaces/inkscape"
   width="32pt"
   height="32pt"
   viewBox="0 0 40.000001 40"
   id="svg4696"
   version="1.1"
   inkscape:version="0.91 r13725"
   sodipodi:docname="settingsicon1.svg">
  <defs
     id="defs4698" />
  <sodipodi:namedview
     id="base"
     pagecolor="#7f7f7f"
     bordercolor="#666666"
     borderopacity="1.0"
     inkscape:pageopacity="0"
     inkscape:pageshadow="2"
     inkscape:zoom="1"
     inkscape:cx="-22.182679"
     inkscape:cy="-84.631161"
     inkscape:document-units="px"
     inkscape:current-layer="layer1"
     showgrid="false"
     units="pt"
     inkscape:snap-bbox="true"
     inkscape:bbox-nodes="true"
     inkscape:snap-bbox-midpoints="true"
     inkscape:window-width="1366"
     inkscape:window-height="705"
     inkscape:window-x="-8"
     inkscape:window-y="-8"
     inkscape:window-maximized="1">
    <inkscape:grid
       type="xygrid"
       id="grid5244" />
  </sodipodi:namedview>
  <metadata
     id="metadata4701">
    <rdf:RDF>
      <cc:Work
         rdf:about="">
        <dc:format>image/svg+xml</dc:format>
        <dc:type
           rdf:resource="http://purl.org/dc/dcmitype/StillImage" />
        <dc:title></dc:title>
      </cc:Work>
    </rdf:RDF>
  </metadata>
  <g
     inkscape:label="Layer 1"
     inkscape:groupmode="layer"
     id="layer1"
     transform="translate(0,-1012.3622)">
    <path
       style="opacity:1;fill:#ffffff;fill-opacity:1;fill-rule:nonzero;stroke:none;stroke-width:1;stroke-linecap:round;stroke-linejoin:miter;stroke-miterlimit:4;stroke-dasharray:none;stroke-dashoffset:0;stroke-opacity:1"
       d="M 19 6 C 17.892 6 17 6.892 17 8 L 17 10.998047 A 9.5 9.5 0 0 0 13.703125 12.902344 L 11.107422 11.402344 C 10.147857 10.848339 8.929 11.175209 8.375 12.134766 L 7.375 13.865234 C 6.821 14.824791 7.1478571 16.043651 8.1074219 16.597656 L 10.695312 18.091797 A 9.5 9.5 0 0 0 10.5 20 A 9.5 9.5 0 0 0 10.703125 21.904297 L 8.1074219 23.402344 C 7.1478571 23.956349 6.821 25.175209 7.375 26.134766 L 8.375 27.865234 C 8.929 28.824791 10.147857 29.151661 11.107422 28.597656 L 13.703125 27.099609 A 9.5 9.5 0 0 0 17 29.005859 L 17 32 C 17 33.108 17.892 34 19 34 L 21 34 C 22.108 34 23 33.108 23 32 L 23 29.001953 A 9.5 9.5 0 0 0 26.296875 27.097656 L 28.892578 28.597656 C 29.852143 29.151661 31.071 28.824791 31.625 27.865234 L 32.625 26.134766 C 33.179 25.175209 32.852143 23.956349 31.892578 23.402344 L 29.304688 21.908203 A 9.5 9.5 0 0 0 29.5 20 A 9.5 9.5 0 0 0 29.296875 18.095703 L 31.892578 16.597656 C 32.852143 16.043651 33.179 14.824791 32.625 13.865234 L 31.625 12.134766 C 31.071 11.175209 29.852143 10.848339 28.892578 11.402344 L 26.296875 12.900391 A 9.5 9.5 0 0 0 23 10.994141 L 23 8 C 23 6.892 22.108 6 21 6 L 19 6 z M 20 15.625 A 4.375 4.375 0 0 1 24.375 20 A 4.375 4.375 0 0 1 20 24.375 A 4.375 4.375 0 0 1 15.625 20 A 4.375 4.375 0 0 1 20 15.625 z "
       transform="translate(0,1012.3622)"
       id="rect5272" />
  </g>
</svg>
